<?xml version="1.0" encoding="utf-8"?>
<!-- Generator: Adobe Illustrator 25.2.3, SVG Export Plug-In . SVG Version: 6.00 Build 0)  -->
<svg version="1.1" id="Layer_1" xmlns="http://www.w3.org/2000/svg" xmlns:xlink="http://www.w3.org/1999/xlink" x="0px" y="0px"
	 viewBox="0 0 491.6 378.8" style="enable-background:new 0 0 491.6 378.8;" xml:space="preserve">
<style type="text/css">
	.st0{fill:#54B573;}
	.st1{fill:#EF87CD;}
	.st2{fill:#EF6DC0;}
	.st3{fill:#A4D978;}
	.st4{fill:#EF3F9B;}
</style>
<g>
	<g>
		<path class="st0" d="M400.7,282.1c0,0-85.3-93-150.3-16.3C250.3,265.8,285.4,355.6,400.7,282.1z"/>
		<path class="st0" d="M91,282.1c0,0,85.3-93,150.3-16.3C241.3,265.8,206.3,355.6,91,282.1z"/>
	</g>
	<g>
		<path class="st1" d="M439.1,189.1c0,0-155.2-64.1-190.5,65.1C248.6,254.2,341.5,342.7,439.1,189.1z"/>
		<path class="st1" d="M52.6,189.1c0,0,155.2-64.1,190.5,65.1C243,254.2,150.2,342.7,52.6,189.1z"/>
	</g>
	<g>
		<path class="st2" d="M388.1,108.4c0,0-167.7,9-143.9,140.7C244.2,249.1,366.2,289.1,388.1,108.4z"/>
		<path class="st2" d="M103.5,108.4c0,0,167.7,9,143.9,140.7C247.4,249.1,125.4,289.1,103.5,108.4z"/>
	</g>
	<g>
		<path class="st3" d="M246.3,324.3c0,0,71.8-79.9,1.4-128.7C247.7,195.6,174.5,232.6,246.3,324.3z"/>
		<path class="st4" d="M246.4,54.5c0,0-112.2,124.9-2.2,201.3C244.2,255.8,358.7,197.8,246.4,54.5z"/>
	</g>
</g>
</svg>
